<svg width="275" height="125" viewBox="0 0 275 125" fill="none" xmlns="http://www.w3.org/2000/svg">
<g clip-path="url(#clip0_601_13)">
<rect width="275" height="125" rx="30" fill="url(#paint0_linear_601_13)"/>
<g style="mix-blend-mode:overlay" opacity="0.5">
<mask id="mask0_601_13" style="mask-type:alpha" maskUnits="userSpaceOnUse" x="92" y="-32" width="209" height="208">
<rect x="92.9521" y="12.3839" width="169.169" height="169.169" transform="rotate(-15 92.9521 12.3839)" fill="url(#paint1_radial_601_13)"/>
</mask>
<g mask="url(#mask0_601_13)">
<rect x="201.286" y="49.032" width="42.2923" height="42.2923" transform="rotate(-15 201.286 49.032)" fill="black"/>
<rect x="115.499" y="72.0188" width="88.8138" height="42.2923" transform="rotate(-15 115.499 72.0188)" fill="url(#paint2_linear_601_13)"/>
<path fill-rule="evenodd" clip-rule="evenodd" d="M204.462 106.925C216.305 116.473 229.328 121.132 243.531 120.903C255.945 114 264.896 103.454 270.383 89.2622C275.866 75.0756 276.667 60.738 272.785 46.2494L263.437 11.3625L212.882 6.51932L171.522 35.9911L175.681 51.5145L187.171 48.436L185.118 40.7764L216.138 18.6725L254.055 22.3049L261.295 49.328C264.386 60.8617 263.94 72.2191 259.958 83.4002C255.976 94.5814 249.427 103.079 240.313 108.892C229.512 108.415 219.593 104.33 210.553 96.6381C209.983 96.1531 209.425 95.6605 208.879 95.1602L195.757 98.6763C198.37 101.605 201.271 104.355 204.462 106.925Z" fill="black"/>
</g>
</g>
<path d="M27.925 42H24.125L30.4 25.25H35L41.275 42H37.35L33.65 31.65L32.65 28.1L31.65 31.65L27.925 42ZM37.125 38.275H27.625V35.25H37.125V38.275ZM48.8486 42H43.3236V38.825H48.5486C49.582 38.825 50.432 38.6333 51.0986 38.25C51.782 37.85 52.2903 37.2667 52.6236 36.5C52.957 35.7167 53.1236 34.7583 53.1236 33.625C53.1236 32.475 52.9486 31.5167 52.5986 30.75C52.2653 29.9833 51.757 29.4083 51.0736 29.025C50.3903 28.625 49.532 28.425 48.4986 28.425H43.3236V25.25H48.7986C50.4986 25.25 51.9486 25.6 53.1486 26.3C54.3653 27 55.2903 27.975 55.9236 29.225C56.557 30.475 56.8736 31.9417 56.8736 33.625C56.8736 35.2917 56.557 36.7583 55.9236 38.025C55.2903 39.275 54.3736 40.25 53.1736 40.95C51.9903 41.65 50.5486 42 48.8486 42ZM45.6486 42H42.0736V25.25H45.6486V42ZM65.9914 37.15H60.4414V33.975H65.8664C66.4831 33.975 67.0247 33.8833 67.4914 33.7C67.9747 33.5167 68.3497 33.225 68.6164 32.825C68.8997 32.425 69.0414 31.9 69.0414 31.25C69.0414 30.55 68.8997 30 68.6164 29.6C68.3497 29.1833 67.9747 28.8833 67.4914 28.7C67.0247 28.5167 66.4831 28.425 65.8664 28.425H60.4414V25.25H65.9914C67.2747 25.25 68.4247 25.4583 69.4414 25.875C70.4747 26.2917 71.2914 26.9417 71.8914 27.825C72.4914 28.6917 72.7914 29.8333 72.7914 31.25C72.7914 32.6333 72.4914 33.7583 71.8914 34.625C71.3081 35.4917 70.4997 36.1333 69.4664 36.55C68.4497 36.95 67.2914 37.15 65.9914 37.15ZM62.6164 42H59.0414V25.25H62.6164V42ZM78.1682 42H74.5932V25.25H79.3182L82.0432 31.475L83.6182 36.45L85.1932 31.475L87.9182 25.25H92.6432V42H89.0682V35.725L89.5682 28.975L87.5682 34.55L85.4932 39.1H81.7432L79.6682 34.55L77.6432 28.975L78.1682 35.725V42Z" fill="#235DB4"/>
</g>
<defs>
<linearGradient id="paint0_linear_601_13" x1="50.5" y1="-12" x2="244" y2="144.5" gradientUnits="userSpaceOnUse">
<stop stop-color="#C7DAFF"/>
<stop offset="1" stop-color="#9CBCFA"/>
</linearGradient>
<radialGradient id="paint1_radial_601_13" cx="0" cy="0" r="1" gradientUnits="userSpaceOnUse" gradientTransform="translate(177.537 96.9684) rotate(90) scale(89.8711)">
<stop offset="0.208333" stop-color="white"/>
<stop offset="1" stop-color="white" stop-opacity="0"/>
</radialGradient>
<linearGradient id="paint2_linear_601_13" x1="115.499" y1="72.0188" x2="204.313" y2="72.0188" gradientUnits="userSpaceOnUse">
<stop stop-opacity="0"/>
<stop offset="1" stop-opacity="0.4"/>
</linearGradient>
<clipPath id="clip0_601_13">
<rect width="275" height="125" rx="30" fill="white"/>
</clipPath>
</defs>
</svg>
