<svg width="275" height="125" viewBox="0 0 275 125" fill="none" xmlns="http://www.w3.org/2000/svg">
<g clip-path="url(#clip0_601_29)">
<rect width="275" height="125" rx="30" fill="url(#paint0_linear_601_29)"/>
<path d="M27.925 42H24.125L30.4 25.25H35L41.275 42H37.35L33.65 31.65L32.65 28.1L31.65 31.65L27.925 42ZM37.125 38.275H27.625V35.25H37.125V38.275ZM49.0236 37.15H43.4736V33.975H48.8986C49.5153 33.975 50.057 33.8833 50.5236 33.7C51.007 33.5167 51.382 33.225 51.6486 32.825C51.932 32.425 52.0736 31.9 52.0736 31.25C52.0736 30.55 51.932 30 51.6486 29.6C51.382 29.1833 51.007 28.8833 50.5236 28.7C50.057 28.5167 49.5153 28.425 48.8986 28.425H43.4736V25.25H49.0236C50.307 25.25 51.457 25.4583 52.4736 25.875C53.507 26.2917 54.3236 26.9417 54.9236 27.825C55.5236 28.6917 55.8236 29.8333 55.8236 31.25C55.8236 32.6333 55.5236 33.7583 54.9236 34.625C54.3403 35.4917 53.532 36.1333 52.4986 36.55C51.482 36.95 50.3236 37.15 49.0236 37.15ZM45.6486 42H42.0736V25.25H45.6486V42ZM61.2004 42H57.6254V25.25H62.3504L65.0754 31.475L66.6504 36.45L68.2254 31.475L70.9504 25.25H75.6754V42H72.1004V35.725L72.6004 28.975L70.6004 34.55L68.5254 39.1H64.7754L62.7004 34.55L60.6754 28.975L61.2004 35.725V42Z" fill="#B5530A"/>
<g style="mix-blend-mode:overlay" opacity="0.8">
<mask id="mask0_601_29" style="mask-type:alpha" maskUnits="userSpaceOnUse" x="122" y="-15" width="154" height="154">
<rect x="122" y="18" width="125" height="125" transform="rotate(-15 122 18)" fill="url(#paint1_radial_601_29)"/>
</mask>
<g mask="url(#mask0_601_29)">
<rect x="178.355" y="10.9877" width="31.25" height="31.25" transform="rotate(-15 178.355 10.9877)" fill="black"/>
<rect x="217.141" y="41.0355" width="31.25" height="31.25" transform="rotate(-15 217.141 41.0355)" fill="black"/>
<rect x="181.974" y="90.8991" width="31.25" height="31.25" transform="rotate(-15 181.974 90.8991)" fill="black"/>
<rect x="124.022" y="25.5463" width="56.25" height="31.25" transform="rotate(-15 124.022 25.5463)" fill="url(#paint2_linear_601_29)"/>
<rect x="144.242" y="101.009" width="39.0625" height="31.25" transform="rotate(-15 144.242 101.009)" fill="url(#paint3_linear_601_29)"/>
<rect x="134.132" y="63.2778" width="85.9375" height="31.25" transform="rotate(-15 134.132 63.2778)" fill="url(#paint4_linear_601_29)"/>
</g>
</g>
</g>
<defs>
<linearGradient id="paint0_linear_601_29" x1="50.5" y1="-12" x2="244" y2="144.5" gradientUnits="userSpaceOnUse">
<stop stop-color="#FFEAC7"/>
<stop offset="1" stop-color="#FACF9C"/>
</linearGradient>
<radialGradient id="paint1_radial_601_29" cx="0" cy="0" r="1" gradientUnits="userSpaceOnUse" gradientTransform="translate(184.5 80.5) rotate(90) scale(66.4062)">
<stop offset="0.208333" stop-color="white"/>
<stop offset="1" stop-color="white" stop-opacity="0"/>
</radialGradient>
<linearGradient id="paint2_linear_601_29" x1="124.022" y1="25.5463" x2="180.272" y2="25.5463" gradientUnits="userSpaceOnUse">
<stop stop-opacity="0"/>
<stop offset="1" stop-opacity="0.4"/>
</linearGradient>
<linearGradient id="paint3_linear_601_29" x1="144.242" y1="101.009" x2="183.305" y2="101.009" gradientUnits="userSpaceOnUse">
<stop stop-opacity="0"/>
<stop offset="1" stop-opacity="0.4"/>
</linearGradient>
<linearGradient id="paint4_linear_601_29" x1="134.132" y1="63.2778" x2="220.07" y2="63.2778" gradientUnits="userSpaceOnUse">
<stop stop-opacity="0"/>
<stop offset="1" stop-opacity="0.4"/>
</linearGradient>
<clipPath id="clip0_601_29">
<rect width="275" height="125" rx="30" fill="white"/>
</clipPath>
</defs>
</svg>
