<svg width="275" height="125" viewBox="0 0 275 125" fill="none" xmlns="http://www.w3.org/2000/svg">
<g clip-path="url(#clip0_937_164)">
<rect width="275" height="125" rx="30" fill="url(#paint0_linear_937_164)"/>
<g style="mix-blend-mode:overlay" opacity="0.5">
<mask id="mask0_937_164" style="mask-type:alpha" maskUnits="userSpaceOnUse" x="120" y="-47" width="225" height="225">
<rect x="120" y="0.515015" width="183.584" height="183.584" transform="rotate(-15 120 0.515015)" fill="url(#paint1_radial_937_164)"/>
</mask>
<g mask="url(#mask0_937_164)">
<path d="M235.464 135.879L228.994 82.1788L203.133 89.1081C201.286 89.6031 200.014 89.416 199.316 88.547C198.624 87.6767 198.539 86.2475 199.062 84.2595L221.993 -3.0564L229.382 -5.03619L235.852 48.6645L261.712 41.7352C263.56 41.2402 264.829 41.4279 265.522 42.2983C266.219 43.1673 266.306 44.5958 265.783 46.5838L242.852 133.9L235.464 135.879Z" fill="#1C1B1F"/>
</g>
</g>
<path d="M33.475 42H26.95V38.825H32.95C33.9 38.825 34.5917 38.6667 35.025 38.35C35.4583 38.0333 35.675 37.5333 35.675 36.85C35.675 36.4 35.5667 36.0333 35.35 35.75C35.15 35.4667 34.85 35.2583 34.45 35.125C34.05 34.975 33.5667 34.9 33 34.9H26.95V32.025H32.675C33.1417 32.025 33.5417 31.9667 33.875 31.85C34.225 31.7333 34.4917 31.55 34.675 31.3C34.875 31.0333 34.975 30.6833 34.975 30.25C34.975 29.7833 34.875 29.425 34.675 29.175C34.4917 28.9083 34.225 28.7167 33.875 28.6C33.525 28.4833 33.1083 28.425 32.625 28.425H26.95V25.25H33.575C34.8083 25.25 35.8 25.4417 36.55 25.825C37.3167 26.1917 37.875 26.7 38.225 27.35C38.575 28 38.75 28.7167 38.75 29.5C38.75 30.2167 38.6 30.825 38.3 31.325C38.0167 31.8083 37.6333 32.2 37.15 32.5C36.6667 32.7833 36.1167 33 35.5 33.15C34.8833 33.2833 34.25 33.3667 33.6 33.4C35.0167 33.45 36.1417 33.6583 36.975 34.025C37.825 34.3917 38.4333 34.8917 38.8 35.525C39.1667 36.1417 39.35 36.8417 39.35 37.625C39.35 38.675 39.1083 39.5167 38.625 40.15C38.1417 40.7833 37.4583 41.25 36.575 41.55C35.6917 41.85 34.6583 42 33.475 42ZM28.925 42H25.35V25.25H28.925V42ZM44.9871 42H41.4121V25.25H44.9871V42ZM51.0906 28.3H47.5156V25.25H51.0906V28.3ZM51.0906 42H47.5156V29.75H51.0906V42ZM58.4691 42.25C57.5691 42.25 56.8191 42.0833 56.2191 41.75C55.6358 41.4167 55.2025 40.9583 54.9191 40.375C54.6358 39.7917 54.4941 39.125 54.4941 38.375V28.3L58.0691 26.425V37.725C58.0691 38.225 58.1775 38.575 58.3941 38.775C58.6275 38.975 58.9191 39.075 59.2691 39.075C59.6525 39.075 60.0025 38.95 60.3191 38.7C60.6525 38.4333 60.9108 38.125 61.0941 37.775L62.1191 40.7C61.8525 41.0333 61.4108 41.375 60.7941 41.725C60.1775 42.075 59.4025 42.25 58.4691 42.25ZM61.4691 32.475H52.6691V29.75H61.4691V32.475ZM73.9848 42H62.7848V39.375L67.0348 34.725L69.6598 32.475L66.0348 32.65H63.1348V29.75H73.7348V32.375L69.4098 36.8L66.6348 39.25L70.4098 39.1H73.9848V42Z" fill="#8E23B4"/>
</g>
<defs>
<linearGradient id="paint0_linear_937_164" x1="50.5" y1="-12" x2="244" y2="144.5" gradientUnits="userSpaceOnUse">
<stop stop-color="#EAC7FF"/>
<stop offset="1" stop-color="#D19CFA"/>
</linearGradient>
<radialGradient id="paint1_radial_937_164" cx="0" cy="0" r="1" gradientUnits="userSpaceOnUse" gradientTransform="translate(211.792 92.3071) rotate(90) scale(97.5291)">
<stop offset="0.208333" stop-color="white" stop-opacity="0.78"/>
<stop offset="1" stop-color="white" stop-opacity="0"/>
</radialGradient>
<clipPath id="clip0_937_164">
<rect width="275" height="125" rx="30" fill="white"/>
</clipPath>
</defs>
</svg>
