<svg width="132" height="56" viewBox="0 0 132 56" fill="none" xmlns="http://www.w3.org/2000/svg">
<path d="M2 10.5C1.17157 10.5 0.5 11.1716 0.5 12C0.5 12.8284 1.17157 13.5 2 13.5V10.5ZM131.061 13.0607C131.646 12.4749 131.646 11.5251 131.061 10.9393L121.515 1.3934C120.929 0.807611 119.979 0.807611 119.393 1.3934C118.808 1.97919 118.808 2.92893 119.393 3.51472L127.879 12L119.393 20.4853C118.808 21.0711 118.808 22.0208 119.393 22.6066C119.979 23.1924 120.929 23.1924 121.515 22.6066L131.061 13.0607ZM4.95385 13.5C5.78227 13.5 6.45385 12.8284 6.45385 12C6.45385 11.1716 5.78227 10.5 4.95385 10.5V13.5ZM11.8462 10.5C11.0177 10.5 10.3462 11.1716 10.3462 12C10.3462 12.8284 11.0177 13.5 11.8462 13.5V10.5ZM17.7538 13.5C18.5823 13.5 19.2538 12.8284 19.2538 12C19.2538 11.1716 18.5823 10.5 17.7538 10.5V13.5ZM24.6462 10.5C23.8177 10.5 23.1462 11.1716 23.1462 12C23.1462 12.8284 23.8177 13.5 24.6462 13.5V10.5ZM30.5538 13.5C31.3823 13.5 32.0538 12.8284 32.0538 12C32.0538 11.1716 31.3823 10.5 30.5538 10.5V13.5ZM37.4462 10.5C36.6177 10.5 35.9462 11.1716 35.9462 12C35.9462 12.8284 36.6177 13.5 37.4462 13.5V10.5ZM43.3538 13.5C44.1823 13.5 44.8538 12.8284 44.8538 12C44.8538 11.1716 44.1823 10.5 43.3538 10.5V13.5ZM50.2462 10.5C49.4177 10.5 48.7462 11.1716 48.7462 12C48.7462 12.8284 49.4177 13.5 50.2462 13.5V10.5ZM56.1538 13.5C56.9823 13.5 57.6538 12.8284 57.6538 12C57.6538 11.1716 56.9823 10.5 56.1538 10.5V13.5ZM63.0462 10.5C62.2177 10.5 61.5462 11.1716 61.5462 12C61.5462 12.8284 62.2177 13.5 63.0462 13.5V10.5ZM68.9538 13.5C69.7823 13.5 70.4538 12.8284 70.4538 12C70.4538 11.1716 69.7823 10.5 68.9538 10.5V13.5ZM75.8462 10.5C75.0177 10.5 74.3462 11.1716 74.3462 12C74.3462 12.8284 75.0177 13.5 75.8462 13.5V10.5ZM81.7539 13.5C82.5823 13.5 83.2539 12.8284 83.2539 12C83.2539 11.1716 82.5823 10.5 81.7539 10.5V13.5ZM88.6462 10.5C87.8177 10.5 87.1462 11.1716 87.1462 12C87.1462 12.8284 87.8177 13.5 88.6462 13.5V10.5ZM94.5539 13.5C95.3823 13.5 96.0539 12.8284 96.0539 12C96.0539 11.1716 95.3823 10.5 94.5539 10.5V13.5ZM101.446 10.5C100.618 10.5 99.9462 11.1716 99.9462 12C99.9462 12.8284 100.618 13.5 101.446 13.5V10.5ZM107.354 13.5C108.182 13.5 108.854 12.8284 108.854 12C108.854 11.1716 108.182 10.5 107.354 10.5V13.5ZM114.246 10.5C113.418 10.5 112.746 11.1716 112.746 12C112.746 12.8284 113.418 13.5 114.246 13.5V10.5ZM120.154 13.5C120.982 13.5 121.654 12.8284 121.654 12C121.654 11.1716 120.982 10.5 120.154 10.5V13.5ZM127.046 10.5C126.218 10.5 125.546 11.1716 125.546 12C125.546 12.8284 126.218 13.5 127.046 13.5V10.5ZM2 13.5H4.95385V10.5H2V13.5ZM11.8462 13.5H17.7538V10.5H11.8462V13.5ZM24.6462 13.5H30.5538V10.5H24.6462V13.5ZM37.4462 13.5H43.3538V10.5H37.4462V13.5ZM50.2462 13.5H56.1538V10.5H50.2462V13.5ZM63.0462 13.5H68.9538V10.5H63.0462V13.5ZM75.8462 13.5H81.7539V10.5H75.8462V13.5ZM88.6462 13.5H94.5539V10.5H88.6462V13.5ZM101.446 13.5H107.354V10.5H101.446V13.5ZM114.246 13.5H120.154V10.5H114.246V13.5ZM127.046 13.5H130V10.5H127.046V13.5Z" fill="#A1A1AB"/>
<path d="M130 45.5C130.828 45.5 131.5 44.8284 131.5 44C131.5 43.1716 130.828 42.5 130 42.5V45.5ZM0.939331 42.9393C0.353546 43.5251 0.353546 44.4749 0.939331 45.0607L10.4853 54.6066C11.0711 55.1924 12.0208 55.1924 12.6066 54.6066C13.1924 54.0208 13.1924 53.0711 12.6066 52.4853L4.12132 44L12.6066 35.5147C13.1924 34.9289 13.1924 33.9792 12.6066 33.3934C12.0208 32.8076 11.0711 32.8076 10.4853 33.3934L0.939331 42.9393ZM127.046 42.5C126.218 42.5 125.546 43.1716 125.546 44C125.546 44.8284 126.218 45.5 127.046 45.5V42.5ZM120.154 45.5C120.982 45.5 121.654 44.8284 121.654 44C121.654 43.1716 120.982 42.5 120.154 42.5V45.5ZM114.246 42.5C113.418 42.5 112.746 43.1716 112.746 44C112.746 44.8284 113.418 45.5 114.246 45.5V42.5ZM107.354 45.5C108.182 45.5 108.854 44.8284 108.854 44C108.854 43.1716 108.182 42.5 107.354 42.5V45.5ZM101.446 42.5C100.618 42.5 99.9462 43.1716 99.9462 44C99.9462 44.8284 100.618 45.5 101.446 45.5V42.5ZM94.5538 45.5C95.3823 45.5 96.0538 44.8284 96.0538 44C96.0538 43.1716 95.3823 42.5 94.5538 42.5V45.5ZM88.6462 42.5C87.8177 42.5 87.1462 43.1716 87.1462 44C87.1462 44.8284 87.8177 45.5 88.6462 45.5V42.5ZM81.7538 45.5C82.5823 45.5 83.2538 44.8284 83.2538 44C83.2538 43.1716 82.5823 42.5 81.7538 42.5V45.5ZM75.8462 42.5C75.0177 42.5 74.3462 43.1716 74.3462 44C74.3462 44.8284 75.0177 45.5 75.8462 45.5V42.5ZM68.9538 45.5C69.7823 45.5 70.4538 44.8284 70.4538 44C70.4538 43.1716 69.7823 42.5 68.9538 42.5V45.5ZM63.0462 42.5C62.2177 42.5 61.5462 43.1716 61.5462 44C61.5462 44.8284 62.2177 45.5 63.0462 45.5V42.5ZM56.1538 45.5C56.9823 45.5 57.6538 44.8284 57.6538 44C57.6538 43.1716 56.9823 42.5 56.1538 42.5V45.5ZM50.2461 42.5C49.4177 42.5 48.7461 43.1716 48.7461 44C48.7461 44.8284 49.4177 45.5 50.2461 45.5V42.5ZM43.3538 45.5C44.1823 45.5 44.8538 44.8284 44.8538 44C44.8538 43.1716 44.1823 42.5 43.3538 42.5V45.5ZM37.4461 42.5C36.6177 42.5 35.9461 43.1716 35.9461 44C35.9461 44.8284 36.6177 45.5 37.4461 45.5V42.5ZM30.5538 45.5C31.3823 45.5 32.0538 44.8284 32.0538 44C32.0538 43.1716 31.3823 42.5 30.5538 42.5V45.5ZM24.6461 42.5C23.8177 42.5 23.1461 43.1716 23.1461 44C23.1461 44.8284 23.8177 45.5 24.6461 45.5V42.5ZM17.7538 45.5C18.5823 45.5 19.2538 44.8284 19.2538 44C19.2538 43.1716 18.5823 42.5 17.7538 42.5V45.5ZM11.8461 42.5C11.0177 42.5 10.3461 43.1716 10.3461 44C10.3461 44.8284 11.0177 45.5 11.8461 45.5V42.5ZM4.95383 45.5C5.78225 45.5 6.45383 44.8284 6.45383 44C6.45383 43.1716 5.78225 42.5 4.95383 42.5V45.5ZM130 42.5H127.046V45.5H130V42.5ZM120.154 42.5H114.246V45.5H120.154V42.5ZM107.354 42.5H101.446V45.5H107.354V42.5ZM94.5538 42.5H88.6462V45.5H94.5538V42.5ZM81.7538 42.5H75.8462V45.5H81.7538V42.5ZM68.9538 42.5H63.0462V45.5H68.9538V42.5ZM56.1538 42.5H50.2461V45.5H56.1538V42.5ZM43.3538 42.5H37.4461V45.5H43.3538V42.5ZM30.5538 42.5H24.6461V45.5H30.5538V42.5ZM17.7538 42.5H11.8461V45.5H17.7538V42.5ZM4.95383 42.5H2V45.5H4.95383V42.5Z" fill="#A1A1AB"/>
<circle cx="66" cy="28" r="28" fill="#F1F1F1"/>
<g filter="url(#filter0_d_503_299)">
<path fill-rule="evenodd" clip-rule="evenodd" d="M66 48C77.0457 48 86 39.0457 86 28C86 16.9543 77.0457 8 66 8C54.9543 8 46 16.9543 46 28C46 39.0457 54.9543 48 66 48ZM59.6667 37.0667L66.2667 30.4667L72.8667 37.0667C73.1778 37.3778 73.5444 37.5333 73.9667 37.5333C74.3889 37.5333 74.7556 37.3778 75.0667 37.0667C75.3778 36.7556 75.5333 36.3889 75.5333 35.9667C75.5333 35.5444 75.3778 35.1778 75.0667 34.8667L68.4667 28.2667L75.0667 21.6667C75.3778 21.3556 75.5333 20.9889 75.5333 20.5667C75.5333 20.1444 75.3778 19.7778 75.0667 19.4667C74.7556 19.1556 74.3889 19 73.9667 19C73.5444 19 73.1778 19.1556 72.8667 19.4667L66.2667 26.0667L59.6667 19.4667C59.3556 19.1556 58.9889 19 58.5667 19C58.1444 19 57.7778 19.1556 57.4667 19.4667C57.1556 19.7778 57 20.1444 57 20.5667C57 20.9889 57.1556 21.3556 57.4667 21.6667L64.0667 28.2667L57.4667 34.8667C57.1556 35.1778 57 35.5444 57 35.9667C57 36.3889 57.1556 36.7556 57.4667 37.0667C57.7778 37.3778 58.1444 37.5333 58.5667 37.5333C58.9889 37.5333 59.3556 37.3778 59.6667 37.0667Z" fill="#F04444"/>
</g>
<defs>
<filter id="filter0_d_503_299" x="42" y="7" width="48" height="48" filterUnits="userSpaceOnUse" color-interpolation-filters="sRGB">
<feFlood flood-opacity="0" result="BackgroundImageFix"/>
<feColorMatrix in="SourceAlpha" type="matrix" values="0 0 0 0 0 0 0 0 0 0 0 0 0 0 0 0 0 0 127 0" result="hardAlpha"/>
<feOffset dy="3"/>
<feGaussianBlur stdDeviation="2"/>
<feComposite in2="hardAlpha" operator="out"/>
<feColorMatrix type="matrix" values="0 0 0 0 0 0 0 0 0 0 0 0 0 0 0 0 0 0 0.1 0"/>
<feBlend mode="normal" in2="BackgroundImageFix" result="effect1_dropShadow_503_299"/>
<feBlend mode="normal" in="SourceGraphic" in2="effect1_dropShadow_503_299" result="shape"/>
</filter>
</defs>
</svg>
