<svg width="132" height="56" viewBox="0 0 132 56" fill="none" xmlns="http://www.w3.org/2000/svg">
<path d="M2 10.5C1.17157 10.5 0.5 11.1716 0.5 12C0.5 12.8284 1.17157 13.5 2 13.5V10.5ZM131.061 13.0607C131.646 12.4749 131.646 11.5251 131.061 10.9393L121.515 1.3934C120.929 0.807611 119.979 0.807611 119.393 1.3934C118.808 1.97919 118.808 2.92893 119.393 3.51472L127.879 12L119.393 20.4853C118.808 21.0711 118.808 22.0208 119.393 22.6066C119.979 23.1924 120.929 23.1924 121.515 22.6066L131.061 13.0607ZM2 13.5H130V10.5H2V13.5Z" fill="#A1A1AB"/>
<path d="M130 45.5C130.828 45.5 131.5 44.8284 131.5 44C131.5 43.1716 130.828 42.5 130 42.5V45.5ZM0.939331 42.9393C0.353546 43.5251 0.353546 44.4749 0.939331 45.0607L10.4853 54.6066C11.0711 55.1924 12.0208 55.1924 12.6066 54.6066C13.1924 54.0208 13.1924 53.0711 12.6066 52.4853L4.12132 44L12.6066 35.5147C13.1924 34.9289 13.1924 33.9792 12.6066 33.3934C12.0208 32.8076 11.0711 32.8076 10.4853 33.3934L0.939331 42.9393ZM130 42.5L2 42.5V45.5L130 45.5V42.5Z" fill="#A1A1AB"/>
<circle cx="66" cy="28" r="28" fill="#F1F1F1"/>
<g filter="url(#filter0_d_503_333)">
<path fill-rule="evenodd" clip-rule="evenodd" d="M66 48C77.0457 48 86 39.0457 86 28C86 16.9543 77.0457 8 66 8C54.9543 8 46 16.9543 46 28C46 39.0457 54.9543 48 66 48ZM62.0168 35.7834C62.2057 35.8611 62.4001 35.9 62.6001 35.9C62.8001 35.9 62.9945 35.8611 63.1834 35.7834C63.3723 35.7056 63.5334 35.5889 63.6668 35.4334L76.4334 22.6667C76.7445 22.3778 76.9001 22.0167 76.9001 21.5834C76.9001 21.15 76.7445 20.7778 76.4334 20.4667C76.1445 20.1556 75.789 20.0056 75.3668 20.0167C74.9445 20.0278 74.5779 20.1778 74.2668 20.4667L62.6001 32.1334L57.7334 27.2334C57.4223 26.9445 57.0501 26.8 56.6168 26.8C56.1834 26.8 55.8223 26.9445 55.5334 27.2334C55.2445 27.5222 55.1001 27.8889 55.1001 28.3334C55.1001 28.7778 55.2445 29.1445 55.5334 29.4334L61.5668 35.4334C61.6779 35.5889 61.8279 35.7056 62.0168 35.7834Z" fill="#23C55E"/>
</g>
<defs>
<filter id="filter0_d_503_333" x="42" y="7" width="48" height="48" filterUnits="userSpaceOnUse" color-interpolation-filters="sRGB">
<feFlood flood-opacity="0" result="BackgroundImageFix"/>
<feColorMatrix in="SourceAlpha" type="matrix" values="0 0 0 0 0 0 0 0 0 0 0 0 0 0 0 0 0 0 127 0" result="hardAlpha"/>
<feOffset dy="3"/>
<feGaussianBlur stdDeviation="2"/>
<feComposite in2="hardAlpha" operator="out"/>
<feColorMatrix type="matrix" values="0 0 0 0 0 0 0 0 0 0 0 0 0 0 0 0 0 0 0.1 0"/>
<feBlend mode="normal" in2="BackgroundImageFix" result="effect1_dropShadow_503_333"/>
<feBlend mode="normal" in="SourceGraphic" in2="effect1_dropShadow_503_333" result="shape"/>
</filter>
</defs>
</svg>
