<svg width="132" height="56" viewBox="0 0 132 56" fill="none" xmlns="http://www.w3.org/2000/svg">
<path d="M2 10.5C1.17157 10.5 0.5 11.1716 0.5 12C0.5 12.8284 1.17157 13.5 2 13.5V10.5ZM131.061 13.0607C131.646 12.4749 131.646 11.5251 131.061 10.9393L121.515 1.3934C120.929 0.807611 119.979 0.807611 119.393 1.3934C118.808 1.97919 118.808 2.92893 119.393 3.51472L127.879 12L119.393 20.4853C118.808 21.0711 118.808 22.0208 119.393 22.6066C119.979 23.1924 120.929 23.1924 121.515 22.6066L131.061 13.0607ZM2 13.5H130V10.5H2V13.5Z" fill="#A1A1AB"/>
<path d="M130 45.5C130.828 45.5 131.5 44.8284 131.5 44C131.5 43.1716 130.828 42.5 130 42.5V45.5ZM0.939331 42.9393C0.353546 43.5251 0.353546 44.4749 0.939331 45.0607L10.4853 54.6066C11.0711 55.1924 12.0208 55.1924 12.6066 54.6066C13.1924 54.0208 13.1924 53.0711 12.6066 52.4853L4.12132 44L12.6066 35.5147C13.1924 34.9289 13.1924 33.9792 12.6066 33.3934C12.0208 32.8076 11.0711 32.8076 10.4853 33.3934L0.939331 42.9393ZM130 42.5L2 42.5V45.5L130 45.5V42.5Z" fill="#A1A1AB"/>
<circle cx="66" cy="28" r="28" fill="#F1F1F1"/>
<g filter="url(#filter0_d_1756_38)">
<path fill-rule="evenodd" clip-rule="evenodd" d="M66 47.9998C77.0457 47.9998 86 39.0455 86 27.9998C86 16.9541 77.0457 7.99976 66 7.99976C54.9543 7.99976 46 16.9541 46 27.9998C46 39.0455 54.9543 47.9998 66 47.9998ZM64.9779 30.925H66.5279V30.3C66.5279 29.7167 66.6362 29.225 66.8529 28.825C67.0862 28.425 67.3779 28.075 67.7279 27.775C68.0945 27.4583 68.4779 27.1583 68.8779 26.875C69.2945 26.5917 69.6779 26.2833 70.0279 25.95C70.3945 25.6167 70.6945 25.2167 70.9279 24.75C71.1612 24.2833 71.2779 23.7083 71.2779 23.025C71.2779 21.6417 70.8279 20.625 69.9279 19.975C69.0445 19.325 67.8945 19 66.4779 19C65.2112 19 64.1362 19.25 63.2529 19.75C62.3862 20.25 61.7612 20.9333 61.3779 21.8C60.9945 22.65 60.9029 23.6167 61.1029 24.7L62.6279 25.675C62.3945 24.5583 62.4029 23.625 62.6529 22.875C62.9195 22.1083 63.3695 21.5333 64.0029 21.15C64.6529 20.75 65.4445 20.55 66.3779 20.55C67.4612 20.55 68.2529 20.7917 68.7529 21.275C69.2529 21.7583 69.5029 22.3667 69.5029 23.1C69.5029 23.65 69.3945 24.1167 69.1779 24.5C68.9612 24.8833 68.6779 25.225 68.3279 25.525C67.9945 25.8083 67.6279 26.0917 67.2279 26.375C66.8445 26.6417 66.4779 26.9417 66.1279 27.275C65.7945 27.5917 65.5195 27.9833 65.3029 28.45C65.0862 28.9167 64.9779 29.4917 64.9779 30.175V30.925ZM64.7779 36H66.7279V33.05H64.7779V36Z" fill="#E9B308"/>
</g>
<defs>
<filter id="filter0_d_1756_38" x="42" y="6.99976" width="48" height="48" filterUnits="userSpaceOnUse" color-interpolation-filters="sRGB">
<feFlood flood-opacity="0" result="BackgroundImageFix"/>
<feColorMatrix in="SourceAlpha" type="matrix" values="0 0 0 0 0 0 0 0 0 0 0 0 0 0 0 0 0 0 127 0" result="hardAlpha"/>
<feOffset dy="3"/>
<feGaussianBlur stdDeviation="2"/>
<feComposite in2="hardAlpha" operator="out"/>
<feColorMatrix type="matrix" values="0 0 0 0 0 0 0 0 0 0 0 0 0 0 0 0 0 0 0.1 0"/>
<feBlend mode="normal" in2="BackgroundImageFix" result="effect1_dropShadow_1756_38"/>
<feBlend mode="normal" in="SourceGraphic" in2="effect1_dropShadow_1756_38" result="shape"/>
</filter>
</defs>
</svg>
