<svg width="132" height="56" viewBox="0 0 132 56" fill="none" xmlns="http://www.w3.org/2000/svg">
<path d="M2 10.5C1.17157 10.5 0.5 11.1716 0.5 12C0.5 12.8284 1.17157 13.5 2 13.5V10.5ZM131.061 13.0607C131.646 12.4749 131.646 11.5251 131.061 10.9393L121.515 1.3934C120.929 0.807611 119.979 0.807611 119.393 1.3934C118.808 1.97919 118.808 2.92893 119.393 3.51472L127.879 12L119.393 20.4853C118.808 21.0711 118.808 22.0208 119.393 22.6066C119.979 23.1924 120.929 23.1924 121.515 22.6066L131.061 13.0607ZM2 13.5H130V10.5H2V13.5Z" fill="#A1A1AB"/>
<path d="M130 45.5C130.828 45.5 131.5 44.8284 131.5 44C131.5 43.1716 130.828 42.5 130 42.5V45.5ZM0.939331 42.9393C0.353546 43.5251 0.353546 44.4749 0.939331 45.0607L10.4853 54.6066C11.0711 55.1924 12.0208 55.1924 12.6066 54.6066C13.1924 54.0208 13.1924 53.0711 12.6066 52.4853L4.12132 44L12.6066 35.5147C13.1924 34.9289 13.1924 33.9792 12.6066 33.3934C12.0208 32.8076 11.0711 32.8076 10.4853 33.3934L0.939331 42.9393ZM130 42.5L2 42.5V45.5L130 45.5V42.5Z" fill="#A1A1AB"/>
<circle cx="66" cy="28" r="28" fill="#F1F1F1"/>
<g filter="url(#filter0_d_1756_38)">
<path fill-rule="evenodd" clip-rule="evenodd" d="M66 47.9998C77.0457 47.9998 86 39.0455 86 27.9998C86 16.9541 77.0457 7.99976 66 7.99976C54.9543 7.99976 46 16.9541 46 27.9998C46 39.0455 54.9543 47.9998 66 47.9998ZM63.555 32.7332H67.3209V32.0227C67.3209 31.2885 67.4749 30.6608 67.7828 30.1398C68.1144 29.595 68.5288 29.1095 69.0262 28.6832C69.5473 28.2331 70.092 27.8068 70.6605 27.4042C71.2289 26.9779 71.7618 26.516 72.2592 26.0186C72.7802 25.5212 73.1947 24.9528 73.5026 24.3133C73.8342 23.6502 74 22.8686 74 21.9685C74 19.9317 73.325 18.4277 71.975 17.4566C70.6486 16.4855 68.8486 16 66.5748 16C64.7985 16 63.2353 16.3316 61.8853 16.9948C60.5589 17.6579 59.5405 18.5698 58.83 19.7303C58.1431 20.8909 57.8826 22.2291 58.0484 23.7449L61.4234 26.1607C61.2339 24.716 61.3287 23.5199 61.7076 22.5725C62.1103 21.6251 62.7142 20.9264 63.5195 20.4764C64.3248 20.0027 65.2485 19.7659 66.2906 19.7659C67.4749 19.7659 68.3275 20.0146 68.8486 20.5119C69.3933 20.9856 69.6657 21.6014 69.6657 22.3593C69.6657 22.9751 69.5117 23.508 69.2038 23.9581C68.9196 24.4081 68.5407 24.8225 68.067 25.2015C67.617 25.5805 67.1314 25.9713 66.6104 26.3739C66.0893 26.7765 65.5919 27.2147 65.1182 27.6884C64.6682 28.1621 64.2893 28.7305 63.9814 29.3937C63.6972 30.0332 63.555 30.8029 63.555 31.703V32.7332ZM63.1287 40.1229H67.6762V35.078H63.1287V40.1229Z" fill="#E9B308"/>
</g>
<defs>
<filter id="filter0_d_1756_38" x="42" y="6.99976" width="48" height="48" filterUnits="userSpaceOnUse" color-interpolation-filters="sRGB">
<feFlood flood-opacity="0" result="BackgroundImageFix"/>
<feColorMatrix in="SourceAlpha" type="matrix" values="0 0 0 0 0 0 0 0 0 0 0 0 0 0 0 0 0 0 127 0" result="hardAlpha"/>
<feOffset dy="3"/>
<feGaussianBlur stdDeviation="2"/>
<feComposite in2="hardAlpha" operator="out"/>
<feColorMatrix type="matrix" values="0 0 0 0 0 0 0 0 0 0 0 0 0 0 0 0 0 0 0.1 0"/>
<feBlend mode="normal" in2="BackgroundImageFix" result="effect1_dropShadow_1756_38"/>
<feBlend mode="normal" in="SourceGraphic" in2="effect1_dropShadow_1756_38" result="shape"/>
</filter>
</defs>
</svg>
