<svg width="132" height="56" viewBox="0 0 132 56" fill="none" xmlns="http://www.w3.org/2000/svg">
<path d="M2 10.5C1.17157 10.5 0.5 11.1716 0.5 12C0.5 12.8284 1.17157 13.5 2 13.5V10.5ZM131.061 13.0607C131.646 12.4749 131.646 11.5251 131.061 10.9393L121.515 1.3934C120.929 0.807611 119.979 0.807611 119.393 1.3934C118.808 1.97919 118.808 2.92893 119.393 3.51472L127.879 12L119.393 20.4853C118.808 21.0711 118.808 22.0208 119.393 22.6066C119.979 23.1924 120.929 23.1924 121.515 22.6066L131.061 13.0607ZM4.95385 13.5C5.78227 13.5 6.45385 12.8284 6.45385 12C6.45385 11.1716 5.78227 10.5 4.95385 10.5V13.5ZM11.8462 10.5C11.0177 10.5 10.3462 11.1716 10.3462 12C10.3462 12.8284 11.0177 13.5 11.8462 13.5V10.5ZM17.7538 13.5C18.5823 13.5 19.2538 12.8284 19.2538 12C19.2538 11.1716 18.5823 10.5 17.7538 10.5V13.5ZM24.6462 10.5C23.8177 10.5 23.1462 11.1716 23.1462 12C23.1462 12.8284 23.8177 13.5 24.6462 13.5V10.5ZM30.5538 13.5C31.3823 13.5 32.0538 12.8284 32.0538 12C32.0538 11.1716 31.3823 10.5 30.5538 10.5V13.5ZM37.4462 10.5C36.6177 10.5 35.9462 11.1716 35.9462 12C35.9462 12.8284 36.6177 13.5 37.4462 13.5V10.5ZM43.3538 13.5C44.1823 13.5 44.8538 12.8284 44.8538 12C44.8538 11.1716 44.1823 10.5 43.3538 10.5V13.5ZM50.2462 10.5C49.4177 10.5 48.7462 11.1716 48.7462 12C48.7462 12.8284 49.4177 13.5 50.2462 13.5V10.5ZM56.1538 13.5C56.9823 13.5 57.6538 12.8284 57.6538 12C57.6538 11.1716 56.9823 10.5 56.1538 10.5V13.5ZM63.0462 10.5C62.2177 10.5 61.5462 11.1716 61.5462 12C61.5462 12.8284 62.2177 13.5 63.0462 13.5V10.5ZM68.9538 13.5C69.7823 13.5 70.4538 12.8284 70.4538 12C70.4538 11.1716 69.7823 10.5 68.9538 10.5V13.5ZM75.8462 10.5C75.0177 10.5 74.3462 11.1716 74.3462 12C74.3462 12.8284 75.0177 13.5 75.8462 13.5V10.5ZM81.7539 13.5C82.5823 13.5 83.2539 12.8284 83.2539 12C83.2539 11.1716 82.5823 10.5 81.7539 10.5V13.5ZM88.6462 10.5C87.8177 10.5 87.1462 11.1716 87.1462 12C87.1462 12.8284 87.8177 13.5 88.6462 13.5V10.5ZM94.5539 13.5C95.3823 13.5 96.0539 12.8284 96.0539 12C96.0539 11.1716 95.3823 10.5 94.5539 10.5V13.5ZM101.446 10.5C100.618 10.5 99.9462 11.1716 99.9462 12C99.9462 12.8284 100.618 13.5 101.446 13.5V10.5ZM107.354 13.5C108.182 13.5 108.854 12.8284 108.854 12C108.854 11.1716 108.182 10.5 107.354 10.5V13.5ZM114.246 10.5C113.418 10.5 112.746 11.1716 112.746 12C112.746 12.8284 113.418 13.5 114.246 13.5V10.5ZM120.154 13.5C120.982 13.5 121.654 12.8284 121.654 12C121.654 11.1716 120.982 10.5 120.154 10.5V13.5ZM127.046 10.5C126.218 10.5 125.546 11.1716 125.546 12C125.546 12.8284 126.218 13.5 127.046 13.5V10.5ZM2 13.5H4.95385V10.5H2V13.5ZM11.8462 13.5H17.7538V10.5H11.8462V13.5ZM24.6462 13.5H30.5538V10.5H24.6462V13.5ZM37.4462 13.5H43.3538V10.5H37.4462V13.5ZM50.2462 13.5H56.1538V10.5H50.2462V13.5ZM63.0462 13.5H68.9538V10.5H63.0462V13.5ZM75.8462 13.5H81.7539V10.5H75.8462V13.5ZM88.6462 13.5H94.5539V10.5H88.6462V13.5ZM101.446 13.5H107.354V10.5H101.446V13.5ZM114.246 13.5H120.154V10.5H114.246V13.5ZM127.046 13.5H130V10.5H127.046V13.5Z" fill="#A1A1AB"/>
<path d="M130 45.5C130.828 45.5 131.5 44.8284 131.5 44C131.5 43.1716 130.828 42.5 130 42.5V45.5ZM0.939331 42.9393C0.353546 43.5251 0.353546 44.4749 0.939331 45.0607L10.4853 54.6066C11.0711 55.1924 12.0208 55.1924 12.6066 54.6066C13.1924 54.0208 13.1924 53.0711 12.6066 52.4853L4.12132 44L12.6066 35.5147C13.1924 34.9289 13.1924 33.9792 12.6066 33.3934C12.0208 32.8076 11.0711 32.8076 10.4853 33.3934L0.939331 42.9393ZM127.046 42.5C126.218 42.5 125.546 43.1716 125.546 44C125.546 44.8284 126.218 45.5 127.046 45.5V42.5ZM120.154 45.5C120.982 45.5 121.654 44.8284 121.654 44C121.654 43.1716 120.982 42.5 120.154 42.5V45.5ZM114.246 42.5C113.418 42.5 112.746 43.1716 112.746 44C112.746 44.8284 113.418 45.5 114.246 45.5V42.5ZM107.354 45.5C108.182 45.5 108.854 44.8284 108.854 44C108.854 43.1716 108.182 42.5 107.354 42.5V45.5ZM101.446 42.5C100.618 42.5 99.9462 43.1716 99.9462 44C99.9462 44.8284 100.618 45.5 101.446 45.5V42.5ZM94.5538 45.5C95.3823 45.5 96.0538 44.8284 96.0538 44C96.0538 43.1716 95.3823 42.5 94.5538 42.5V45.5ZM88.6462 42.5C87.8177 42.5 87.1462 43.1716 87.1462 44C87.1462 44.8284 87.8177 45.5 88.6462 45.5V42.5ZM81.7538 45.5C82.5823 45.5 83.2538 44.8284 83.2538 44C83.2538 43.1716 82.5823 42.5 81.7538 42.5V45.5ZM75.8462 42.5C75.0177 42.5 74.3462 43.1716 74.3462 44C74.3462 44.8284 75.0177 45.5 75.8462 45.5V42.5ZM68.9538 45.5C69.7823 45.5 70.4538 44.8284 70.4538 44C70.4538 43.1716 69.7823 42.5 68.9538 42.5V45.5ZM63.0462 42.5C62.2177 42.5 61.5462 43.1716 61.5462 44C61.5462 44.8284 62.2177 45.5 63.0462 45.5V42.5ZM56.1538 45.5C56.9823 45.5 57.6538 44.8284 57.6538 44C57.6538 43.1716 56.9823 42.5 56.1538 42.5V45.5ZM50.2461 42.5C49.4177 42.5 48.7461 43.1716 48.7461 44C48.7461 44.8284 49.4177 45.5 50.2461 45.5V42.5ZM43.3538 45.5C44.1823 45.5 44.8538 44.8284 44.8538 44C44.8538 43.1716 44.1823 42.5 43.3538 42.5V45.5ZM37.4461 42.5C36.6177 42.5 35.9461 43.1716 35.9461 44C35.9461 44.8284 36.6177 45.5 37.4461 45.5V42.5ZM30.5538 45.5C31.3823 45.5 32.0538 44.8284 32.0538 44C32.0538 43.1716 31.3823 42.5 30.5538 42.5V45.5ZM24.6461 42.5C23.8177 42.5 23.1461 43.1716 23.1461 44C23.1461 44.8284 23.8177 45.5 24.6461 45.5V42.5ZM17.7538 45.5C18.5823 45.5 19.2538 44.8284 19.2538 44C19.2538 43.1716 18.5823 42.5 17.7538 42.5V45.5ZM11.8461 42.5C11.0177 42.5 10.3461 43.1716 10.3461 44C10.3461 44.8284 11.0177 45.5 11.8461 45.5V42.5ZM4.95383 45.5C5.78225 45.5 6.45383 44.8284 6.45383 44C6.45383 43.1716 5.78225 42.5 4.95383 42.5V45.5ZM130 42.5H127.046V45.5H130V42.5ZM120.154 42.5H114.246V45.5H120.154V42.5ZM107.354 42.5H101.446V45.5H107.354V42.5ZM94.5538 42.5H88.6462V45.5H94.5538V42.5ZM81.7538 42.5H75.8462V45.5H81.7538V42.5ZM68.9538 42.5H63.0462V45.5H68.9538V42.5ZM56.1538 42.5H50.2461V45.5H56.1538V42.5ZM43.3538 42.5H37.4461V45.5H43.3538V42.5ZM30.5538 42.5H24.6461V45.5H30.5538V42.5ZM17.7538 42.5H11.8461V45.5H17.7538V42.5ZM4.95383 42.5H2V45.5H4.95383V42.5Z" fill="#A1A1AB"/>
<circle cx="66" cy="28" r="28" fill="#F1F1F1"/>
<g filter="url(#filter0_d_503_316)">
<path fill-rule="evenodd" clip-rule="evenodd" d="M66 48C77.0457 48 86 39.0457 86 28C86 16.9543 77.0457 8 66 8C54.9543 8 46 16.9543 46 28C46 39.0457 54.9543 48 66 48ZM67.4585 27.0375L69.4418 29.05C69.714 29.05 69.9522 28.9479 70.1564 28.7438C70.3605 28.5396 70.4626 28.3014 70.4626 28.0292C70.4626 27.757 70.3605 27.5236 70.1564 27.3292C69.9522 27.1348 69.714 27.0375 69.4418 27.0375H67.4585ZM72.1835 31.8209L74.3418 33.9209C75.4112 33.4542 76.3251 32.6959 77.0835 31.6459C77.8418 30.5959 78.221 29.4098 78.221 28.0875C78.221 26.2403 77.589 24.6799 76.3251 23.4063C75.0612 22.1327 73.496 21.4959 71.6293 21.4959H68.8293C68.4404 21.4959 68.1147 21.632 67.8522 21.9042C67.5897 22.1764 67.4585 22.507 67.4585 22.8959C67.4585 23.2848 67.5897 23.6104 67.8522 23.8729C68.1147 24.1354 68.4404 24.2667 68.8293 24.2667H71.6585C72.7474 24.2667 73.6515 24.6264 74.371 25.3459C75.0904 26.0653 75.4501 26.9792 75.4501 28.0875C75.4501 29.0014 75.1487 29.8084 74.546 30.5084C73.9432 31.2084 73.1557 31.6459 72.1835 31.8209ZM63.9863 29.05L74.546 39.5792C74.7599 39.8125 75.0078 39.9292 75.2897 39.9292C75.5717 39.9292 75.8196 39.8125 76.0335 39.5792C76.2474 39.3653 76.3543 39.1271 76.3543 38.8646C76.3543 38.6021 76.2474 38.3639 76.0335 38.15L55.821 17.9375C55.5876 17.7236 55.3349 17.6167 55.0626 17.6167C54.7904 17.6167 54.5474 17.7236 54.3335 17.9375C54.1001 18.1709 53.9883 18.4236 53.998 18.6959C54.0078 18.9681 54.1196 19.2111 54.3335 19.425L57.1687 22.2521C56.3256 22.7064 55.609 23.3294 55.0189 24.1209C54.1925 25.2292 53.7793 26.5223 53.7793 28C53.7793 29.8473 54.4112 31.4028 55.6751 32.6667C56.939 33.9306 58.5043 34.5625 60.371 34.5625H63.6085C63.9974 34.5625 64.3279 34.4313 64.6001 34.1688C64.8724 33.9063 65.0085 33.5806 65.0085 33.1917C65.0085 32.8028 64.8724 32.4771 64.6001 32.2146C64.3279 31.9521 63.9974 31.8209 63.6085 31.8209H60.371C59.2626 31.8209 58.3487 31.4611 57.6293 30.7417C56.9099 30.0223 56.5501 29.1084 56.5501 28C56.5501 26.8917 56.9099 25.9778 57.6293 25.2584C58.0882 24.7995 58.6262 24.4869 59.2433 24.3207L62.0223 27.0916C61.9526 27.1327 61.8883 27.1827 61.8293 27.2417C61.6349 27.4361 61.5376 27.6889 61.5376 28C61.5376 28.3111 61.6397 28.5639 61.8439 28.7584C62.048 28.9528 62.296 29.05 62.5876 29.05H63.9863Z" fill="#71717B"/>
</g>
<defs>
<filter id="filter0_d_503_316" x="42" y="7" width="48" height="48" filterUnits="userSpaceOnUse" color-interpolation-filters="sRGB">
<feFlood flood-opacity="0" result="BackgroundImageFix"/>
<feColorMatrix in="SourceAlpha" type="matrix" values="0 0 0 0 0 0 0 0 0 0 0 0 0 0 0 0 0 0 127 0" result="hardAlpha"/>
<feOffset dy="3"/>
<feGaussianBlur stdDeviation="2"/>
<feComposite in2="hardAlpha" operator="out"/>
<feColorMatrix type="matrix" values="0 0 0 0 0 0 0 0 0 0 0 0 0 0 0 0 0 0 0.1 0"/>
<feBlend mode="normal" in2="BackgroundImageFix" result="effect1_dropShadow_503_316"/>
<feBlend mode="normal" in="SourceGraphic" in2="effect1_dropShadow_503_316" result="shape"/>
</filter>
</defs>
</svg>
