<svg width="132" height="56" viewBox="0 0 132 56" fill="none" xmlns="http://www.w3.org/2000/svg">
<path d="M2 10.5C1.17157 10.5 0.5 11.1716 0.5 12C0.5 12.8284 1.17157 13.5 2 13.5V10.5ZM131.061 13.0607C131.646 12.4749 131.646 11.5251 131.061 10.9393L121.515 1.3934C120.929 0.807611 119.979 0.807611 119.393 1.3934C118.808 1.97919 118.808 2.92893 119.393 3.51472L127.879 12L119.393 20.4853C118.808 21.0711 118.808 22.0208 119.393 22.6066C119.979 23.1924 120.929 23.1924 121.515 22.6066L131.061 13.0607ZM2 13.5H130V10.5H2V13.5Z" fill="#A1A1AB"/>
<path d="M130 45.5C130.828 45.5 131.5 44.8284 131.5 44C131.5 43.1716 130.828 42.5 130 42.5V45.5ZM0.939331 42.9393C0.353546 43.5251 0.353546 44.4749 0.939331 45.0607L10.4853 54.6066C11.0711 55.1924 12.0208 55.1924 12.6066 54.6066C13.1924 54.0208 13.1924 53.0711 12.6066 52.4853L4.12132 44L12.6066 35.5147C13.1924 34.9289 13.1924 33.9792 12.6066 33.3934C12.0208 32.8076 11.0711 32.8076 10.4853 33.3934L0.939331 42.9393ZM130 42.5L2 42.5V45.5L130 45.5V42.5Z" fill="#A1A1AB"/>
<circle cx="66" cy="28" r="28" fill="#F1F1F1"/>
<g filter="url(#filter0_d_505_398)">
<path fill-rule="evenodd" clip-rule="evenodd" d="M66 48C77.0457 48 86 39.0457 86 28C86 16.9543 77.0457 8 66 8C54.9543 8 46 16.9543 46 28C46 39.0457 54.9543 48 66 48ZM67.5 17.75C67.5 18.7165 66.7165 19.5 65.75 19.5C64.7835 19.5 64 18.7165 64 17.75C64 16.7835 64.7835 16 65.75 16C66.7165 16 67.5 16.7835 67.5 17.75ZM65.75 23C66.5784 23 67.25 23.6716 67.25 24.5V38.5C67.25 39.3284 66.5784 40 65.75 40C64.9216 40 64.25 39.3284 64.25 38.5V24.5C64.25 23.6716 64.9216 23 65.75 23Z" fill="#E9B308"/>
</g>
<defs>
<filter id="filter0_d_505_398" x="42" y="7" width="48" height="48" filterUnits="userSpaceOnUse" color-interpolation-filters="sRGB">
<feFlood flood-opacity="0" result="BackgroundImageFix"/>
<feColorMatrix in="SourceAlpha" type="matrix" values="0 0 0 0 0 0 0 0 0 0 0 0 0 0 0 0 0 0 127 0" result="hardAlpha"/>
<feOffset dy="3"/>
<feGaussianBlur stdDeviation="2"/>
<feComposite in2="hardAlpha" operator="out"/>
<feColorMatrix type="matrix" values="0 0 0 0 0 0 0 0 0 0 0 0 0 0 0 0 0 0 0.1 0"/>
<feBlend mode="normal" in2="BackgroundImageFix" result="effect1_dropShadow_505_398"/>
<feBlend mode="normal" in="SourceGraphic" in2="effect1_dropShadow_505_398" result="shape"/>
</filter>
</defs>
</svg>
