<svg width="71" height="71" viewBox="0 0 71 71" fill="none" xmlns="http://www.w3.org/2000/svg">
<path d="M53.1133 39.2642L42.3935 49.9446C41.8086 50.5274 41.5161 50.8188 41.1788 50.928C40.8822 51.024 40.5626 51.024 40.2659 50.928C39.9287 50.8188 39.6362 50.5274 39.0512 49.9446L30.2776 41.2032L21.5041 49.9446C20.9191 50.5274 20.6266 50.8188 20.2893 50.928C19.9927 51.024 19.6731 51.024 19.3764 50.928C19.0392 50.8188 18.7467 50.5274 18.1617 49.9446L16.1772 47.9673L30.2776 33.9187L39.2299 42.8381C40.0952 43.7002 41.498 43.7002 42.3633 42.8381L53.1133 32.1276V39.2642Z" fill="#EA5252"/>
<path d="M57.5446 34.8491L59.9407 32.4618C60.5256 31.879 60.8181 31.5876 60.9277 31.2516C61.0241 30.956 61.0241 30.6376 60.9277 30.342C60.8181 30.006 60.5256 29.7146 59.9407 29.1318L57.5439 26.7438C57.5444 26.7619 57.5446 26.78 57.5446 26.7982L57.5446 34.8491Z" fill="#EA5252"/>
<path d="M55.3835 24.5913C55.3653 24.5908 55.3472 24.5906 55.3289 24.5906L46.9514 24.5906L49.4959 22.0554C50.0809 21.4726 50.3734 21.1812 50.7107 21.072C51.0073 20.976 51.3269 20.976 51.6236 21.072C51.9608 21.1812 52.2533 21.4726 52.8383 22.0554L55.3835 24.5913Z" fill="#EA5252"/>
<path d="M42.5201 29.0057L40.7224 30.7968L31.9488 22.0554C31.3638 21.4726 31.0714 21.1812 30.7341 21.072C30.4374 20.976 30.1179 20.976 29.8212 21.072C29.4839 21.1812 29.1914 21.4726 28.6065 22.0554L11.0593 39.5382C10.4744 40.121 10.1819 40.4124 10.0723 40.7484C9.9759 41.044 9.9759 41.3624 10.0723 41.658C10.1819 41.994 10.4744 42.2854 11.0593 42.8682L13.0438 44.8454L28.7109 29.2358C29.5762 28.3737 30.9791 28.3737 31.8443 29.2358L40.7966 38.1552L49.9799 29.0057H42.5201Z" fill="#EA5252"/>
<circle cx="35.5" cy="35.5" r="29.5" stroke="#EA5252" stroke-width="2"/>
</svg>
